General
Unique ID                                : 206251172120785563081974623774236663420 (0x9B2A87E5793B589D2E062471AE8ADE7C)
Complete name                            : AND - AGENT VIP ROOM' 2011 ~AND LIVE Shuukai~VIP ROOM~~ Ninmu Houkokuroku (2011) [NTSC DVD 480p PCM MPEG-2 REMUX-SEKAI].mkv
Format                                   : Matroska
Format version                           : Version 4
File size                                : 3.31 GiB
Duration                                 : 53 min 23 s
Overall bit rate mode                    : Variable
Overall bit rate                         : 8 879 kb/s
Frame rate                               : 29.970 FPS
Title                                    : AND - AGENT VIP ROOM' 2011 ~AND LIVE Shuukai~VIP ROOM~~ Ninmu Houkokuroku (2011) [NTSC DVD 480p PCM MPEG-2 REMUX-SEKAI]
Encoded date                             : 2025-09-12 10:29:36 UTC
Writing application                      : mkvmerge 94.0 ('Initiate') 64-bit
Writing library                          : libebml v1.4.5 + libmatroska v1.7.1
Website                                  : https://sekai-archivist.blogspot.com/

Video
ID                                       : 1
ID in the original source medium         : 224 (0xE0)
Format                                   : MPEG Video
Format version                           : Version 2
Format profile                           : Main@Main
Format settings                          : CustomMatrix / BVOP
Format settings, BVOP                    : Yes
Format settings, Matrix                  : Custom
Format settings, GOP                     : Variable
Format settings, picture structure       : Frame
Codec ID                                 : V_MPEG2
Codec ID/Info                            : MPEG 1 or 2 Video
Duration                                 : 53 min 23 s
Bit rate mode                            : Variable
Bit rate                                 : 7 340 kb/s
Maximum bit rate                         : 9 800 kb/s
Width                                    : 720 pixels
Height                                   : 480 pixels
Display aspect ratio                     : 16:9
Frame rate mode                          : Constant
Frame rate                               : 29.970 (30000/1001) FPS
Standard                                 : NTSC
Color space                              : YUV
Chroma subsampling                       : 4:2:0
Bit depth                                : 8 bits
Scan type                                : Interlaced
Scan order                               : Top Field First
Compression mode                         : Lossy
Bits/(Pixel*Frame)                       : 0.709
Time code of first frame                 : 01:00:00:00
Time code source                         : Group of pictures header
Stream size                              : 2.74 GiB (83%)
Language                                 : Japanese
Default                                  : Yes
Forced                                   : No
Original source medium                   : DVD-Video

Audio
ID                                       : 2
ID in the original source medium         : 189 (0xBD)160 (0xA0)
Format                                   : PCM
Format settings                          : Little / Signed
Codec ID                                 : A_PCM/INT/LIT
Duration                                 : 53 min 23 s
Bit rate mode                            : Constant
Bit rate                                 : 1 536 kb/s
Channel(s)                               : 2 channels
Sampling rate                            : 48.0 kHz
Frame rate                               : 30.000 FPS (1600 SPF)
Bit depth                                : 16 bits
Stream size                              : 587 MiB (17%)
Language                                 : Japanese
Default                                  : Yes
Forced                                   : No
Original source medium                   : DVD-Video

Menu
00:00:00.000                             : en:Opening
00:01:56.049                             : en:Joutou Sengen
00:04:42.282                             : en:(Interview 1)
00:07:33.052                             : en:MC
00:10:32.431                             : en:Nerve
00:12:41.427                             : en:Kyoueikai
00:15:55.621                             : en:KoiSURU@GIRL
00:18:29.775                             : en:Beretta [six-fourteen]
00:20:27.893                             : en:GUT
00:22:23.008                             : en:(Interview 2)
00:24:21.126                             : en:KoiSURU@BOY
00:29:05.744                             : en:BLACK OUT
00:31:43.468                             : en:MAD DOG
00:34:17.889                             : en:Sensen Fukoku
00:43:07.918                             : en:Boss IkumaΓÇÖs Lesson on Moves/Choreography


